/* XPM */
static char * bottom_left_active_xpm[] = {
"20 20 5 1",
" 	c None",
".	c #080808 s active_shadow_2",
"+	c #020202 s active_mid_2",
"#	c #020202 s active_mid_2",
"!  c #060606 s active_shadow_2",
".+                  ",
".+                  ",
".+                  ",
".+                  ",
".+                  ",
".+                  ",
".+                  ",
".+                  ",
".+                  ",
".+                  ",
".+                  ",
".+                  ",
".+                  ",
".+                  ",
".+                  ",
".+                  ",
".+                  ",
".+                  ",
".+##################",
".!!!!!!!!!!!!!!!!!!!"};
