/* XPM */
static char * maximize_toggled_active_xpm[] = {
"24 24 11 1",
" 	c None",
"!	c #1c1c1c s active_mid_2",
"#	c #b3b3b3 s active_hilight_1",
"@  c #1a1a1a",
"+  c #030303 s active_mid_2",
"$  c #080808 s active_shadow_2",
"%  c #020202 s active_shadow_2",
"^  c #1f1f1f s active_hilight_2",
"&  c #191919 s active_mid_2",
"*  c #101010 s active_shadow_2",
".  c #101010 s active_mid_2",
"$$$$$$$$$$$$$$$$$$$$$$$$",
"^^%%%%%%%%%%%%%%%%%%^&^^",
"@@*+++++++++++++++++^&@@",
"@@*+++++++++++++++++^&@@",
"@@*.................^&@@",
"@@*.................^&@@",
"@@*.................^&@@",
"@@*.................^&@@",
"@@*.................^&@@",
"@@*.......#######...^&@@",
"@@*.......#######...^&@@",
"@@*............##...^&@@",
"@@*....#######.##...^&@@",
"@@*....#######.##...^&@@",
"@@*....##...##.##...^&@@",
"@@*!!!!##!!!##!##!!!^&@@",
"@@*!!!!##!!!##!!!!!!^&@@",
"@@*!!!!#######!!!!!!^&@@",
"@@*!!!!#######!!!!!!^&@@",
"@@*!!!!!!!!!!!!!!!!!^&@@",
"@@*!!!!!!!!!!!!!!!!!^&@@",
"@@*!!!!!!!!!!!!!!!!!^&@@",
" @^^^^^^^^^^^^^^^^^^^&@ ",
"  &&&&&&&&&&&&&&&&&&&&  "};
