/* XPM */
static char * shade_toggled_active_xpm[] = {
"24 24 10 1",
" 	c None",
".	c #080808 s active_shadow_2",
"+	c #020202 s active_mid_2",
"@	c #030303 s active_color_2",
"#	c #1F1F1F s active_color_2",
"$	c #1C1C1C s inactive_text_color",
"%	c #141414 s active_color_2",
"&	c #191919 s active_color_2",
"*	c #828282 s active_color_2",
"=	c #101010 s active_color_2",
"........................",
"++++++++++++++++++++++++",
"@@@@@@@@@@@@@@@@@@@@@@@@",
"@@@@@@@@@@@@@@@@@@@@@@@@",
"@######################@",
"#$$$$$$$$$$$$$$$$$$$$$$%",
"&$$$$$$$$$$$$$$$$$$$$$$%",
"&$$$$$$$$$$$$$$$$$$$$$$%",
"&$$$$$$$$$$$$$$$$$$$$$$%",
"&$$$$$$$$$$$$$$$$$$$$$$%",
"&$$$$$$$$$$$$$$$$$$$$$$%",
"&$$$$$$$$$$**$$$$$$$$$$%",
"&$$$$$$$$$$**$$$$$$$$$$%",
"&$$$$$$$$$$**$$$$$$$$$$%",
"&$$$$$$$**$**$**$$$$$$$%",
"&$$$$$$$********$$$$$$$%",
"&$$$$$$$$******$$$$$$$$%",
"&$$$$$$$$$****$$$$$$$$$%",
"&$$$$$$$$$$**$$$$$$$$$$%",
"&$$$$$$$$$$$$$$$$$$$$$$%",
"&$$$$$$$$$$$$$$$$$$$$$$%",
"&$$$$$$$$$$$$$$$$$$$$$$%",
"&$$$$$$$$$$$$$$$$$$$$$$%",
"@&=====================@"};
